# xmcd
#
# Track frame offsets:
#	182
#	31897
#	58820
#	83000
#	110345
#	145782
#	159797
#	180537
#	213137
#	223807
#	249585
#	270852
#	301935
#	316420
#
# Disc length: 4529
#
# Revision: 1
# Processed by: cddbd v1.5.1PL0 Copyright (c) Steve Scherf et al.
# Submitted via: CDex 1.51
# Normalized: r0:TDELIM( - )
#
DISCID=b311af0e
DTITLE=Blues Chicago Style - Volume 1 - Guitar Stars
DYEAR=1997
DGENRE=Blues
TTITLE0=What Have I Done - Byther Smith
TTITLE1=Going Back To Louisiana - Lurrie Bell
TTITLE2=DJ Play My Blues - Buddy Guy
TTITLE3=If You Got To Love Somebody - Jimmy Dawkins
TTITLE4=Where The Hell Were You - Lefty Dizz
TTITLE5=Run Don't Walk - Hubert Sumlin
TTITLE6=Mean Red Spider - Jimmy Rogers
TTITLE7=Tina Nu - Phil Guy
TTITLE8=Ain't No Sunshine - Byther Smith
TTITLE9=Addressing The Nation - Byther Smith
TTITLE10=Moon Is Rising - Eddie Taylor with KC Red
TTITLE11=As The Years Go Passing By - Pete Allen (with Carey and Lurrie Bell)
TTITLE12=I Need You So Bad - Lurrie Bell
TTITLE13=All I Can Do - Hubert Sumlin
EXTD=YEAR: 1997
EXTT0=
EXTT1=
EXTT2=
EXTT3=
EXTT4=
EXTT5=
EXTT6=
EXTT7=
EXTT8=
EXTT9=
EXTT10=
EXTT11=
EXTT12=
EXTT13=
PLAYORDER=
